#!OML:ASF \\sashay\E\Suitcase\Project 1\Capture day 1\Session 1\Male1.ASF
:FULLY-SPECIFIED
:DEGREES
697
root 1.06294 17.0952 19.7852 5.66973 4.35756 -0.0224944
lowerback 2.94815 -2.16444 -2.84456
upperback -2.8562 -2.88038 3.98337
thorax -4.26965 -1.27924 5.93502
lowerneck -15.3617 1.55151 -2.98143
upperneck 17.1438 2.42473 2.09621
head 7.75807 1.16605 1.45122
rclavicle 4.14963e-015 -3.18055e-015
rhumerus -39.1708 -14.4534 -68.0424
rradius 19.9156
rwrist -21.4227
rhand -15.3551 16.9812
rfingers 7.12502
rthumb 10.8222 -12.72
lclavicle 4.14963e-015 -3.18055e-015
lhumerus -35.509 1.29163 87.2013
lradius 36.8872
lwrist -6.07731
lhand -1.81263 43.2262
lfingers 7.12502
lthumb 23.8531 71.7651
rfemur -25.1728 1.35032 21.4937
rtibia 21.3862
rfoot -4.81163 -12.9803
rtoes 18.6517
lfemur 8.08768 -7.09311 -22.3
ltibia 24.3378
lfoot -5.15364 -5.5185
ltoes 2.94825
698
root 1.03426 17.1057 19.9162 5.56759 4.15052 0.117158
lowerback 3.05235 -2.1073 -3.05265
upperback -2.77058 -2.8179 3.96568
thorax -4.23874 -1.24438 6.03372
lowerneck -15.3736 1.53259 -3.00892
upperneck 17.0044 2.41536 2.04725
head 7.71478 1.15623 1.43675
rclavicle -3.86388e-014 1.82882e-014
rhumerus -39.373 -13.41 -68.6846
rradius 20.0889
rwrist -22.9774
rhand -15.8839 17.2712
rfingers 7.12502
rthumb 10.3121 -12.456
lclavicle -3.86388e-014 1.82882e-014
lhumerus -35.8825 1.63018 87.1553
lradius 36.5026
lwrist -6.18614
lhand -2.51656 42.8112
lfingers 7.12502
lthumb 23.1779 71.4367
rfemur -24.7715 1.07942 21.639
rtibia 21.6909
rfoot -4.79368 -12.3834
rtoes 20.0211
lfemur 7.48735 -6.91383 -22.3175
ltibia 26.1858
lfoot -4.32044 -5.8887
ltoes 1.51974
699
root 1.00384 17.1187 20.0516 5.51471 4.2358 -0.0421417
lowerback 2.96996 -2.07746 -2.90522
upperback -2.65226 -2.76919 4.00729
thorax -4.07878 -1.23088 5.98201
lowerneck -15.4914 1.43046 -2.90943
upperneck 17.256 2.30018 1.82088
head 7.82677 1.08315 1.33805
rclavicle 1.00138e-014 1.98785e-014
rhumerus -39.4643 -12.4538 -69.3985
rradius 20.2197
rwrist -24.6485
rhand -16.5279 16.1785
rfingers 7.12502
rthumb 9.6909 -13.5786
lclavicle 1.00138e-014 1.98785e-014
lhumerus -36.1537 1.73108 87.1775
lradius 36.3062
lwrist -6.37442
lhand -2.21845 43.1359
lfingers 7.12502
lthumb 23.4639 71.7251
rfemur -24.3041 1.13158 21.9776
rtibia 21.9223
rfoot -5.12718 -12.2727
rtoes 21.4834
lfemur 6.65341 -6.51605 -21.761
ltibia 28.2011
lfoot -3.33413 -6.7244
ltoes 0.135568
700
root 0.972306 17.1282 20.1839 5.63544 4.20412 0.0237843
lowerback 2.78813 -2.13568 -3.05338
upperback -2.63873 -2.85152 4.03989
thorax -3.94322 -1.27165 6.09529
lowerneck -15.2644 1.43875 -3.10288
upperneck 17.0306 2.33222 1.91186
head 7.70762 1.09665 1.39747
rclavicle -4.69629e-015 -1.43125e-014
rhumerus -39.6767 -11.4272 -70.0025
rradius 20.3387
rwrist -25.6506
rhand -16.8891 15.8955
rfingers 7.12502
rthumb 9.34236 -13.8774
lclavicle -4.69629e-015 -1.43125e-014
lhumerus -36.6459 1.9391 87.1714
lradius 36.0124
lwrist -6.28667
lhand -1.63829 43.3394
lfingers 7.12502
lthumb 24.0203 71.8563
rfemur -24.1004 0.704098 22.2163
rtibia 22.1773
rfoot -5.25992 -11.8583
rtoes 19.7311
lfemur 5.58257 -6.09514 -21.4869
ltibia 30.2341
lfoot -2.16822 -7.373
ltoes -0.848672
701
root 0.948555 17.1377 20.3203 5.62103 4.17988 -0.212515
lowerback 2.65863 -2.12879 -2.70139
upperback -2.59136 -2.82545 4.0149
thorax -3.8402 -1.2729 5.85811
lowerneck -15.6294 1.47818 -2.54195
upperneck 17.5645 2.35938 1.43374
head 7.96253 1.09387 1.16159
rclavicle -1.42628e-014 -7.95139e-015
rhumerus -40.0439 -10.7293 -70.5587
rradius 20.4154
rwrist -25.9537
rhand -16.7439 15.456
rfingers 7.12502
rthumb 9.48247 -14.3106
lclavicle -1.42628e-014 -7.95139e-015
lhumerus -37.0258 1.78289 87.074
lradius 35.6141
lwrist -6.20975
lhand -1.4075 43.6024
lfingers 7.12502
lthumb 24.2416 72.0901
rfemur -23.5925 0.596188 22.6589
rtibia 22.2842
rfoot -5.72772 -11.4925
rtoes 20.5141
lfemur 4.57722 -5.75959 -20.9757
ltibia 32.364
lfoot -0.896283 -7.89696
ltoes -1.267
702
root 0.923748 17.1416 20.4577 5.42077 4.32762 -0.294616
lowerback 2.7117 -2.18431 -2.63334
upperback -2.48611 -2.89741 4.05465
thorax -3.75314 -1.31457 5.86338
lowerneck -15.5824 1.51255 -2.46724
upperneck 17.5167 2.41331 1.30405
head 7.94004 1.11187 1.11117
rclavicle -6.48535e-015 -1.59028e-014
rhumerus -40.3558 -9.95727 -70.978
rradius 20.5437
rwrist -26.4323
rhand -17.1009 15.0609
rfingers 7.12502
rthumb 9.13801 -14.7211
lclavicle -6.48535e-015 -1.59028e-014
lhumerus -37.2701 2.05201 86.9484
lradius 35.1062
lwrist -7.17055
lhand -0.586935 43.0853
lfingers 7.12502
lthumb 25.0281 71.4656
rfemur -22.8922 0.421266 22.9269
rtibia 22.3023
rfoot -6.07164 -11.385
rtoes 18.9566
lfemur 3.71519 -5.45153 -20.5513
ltibia 34.5825
lfoot 0.097642 -8.36215
ltoes -0.845035
703
root 0.901989 17.1452 20.5847 5.46647 4.31399 -0.585607
lowerback 2.69224 -2.16627 -2.31919
upperback -2.50814 -2.85505 4.13841
thorax -3.7804 -1.2997 5.77065
lowerneck -15.7935 1.5559 -1.96457
upperneck 17.8306 2.47579 0.724673
head 8.09638 1.11328 0.849285
rclavicle -3.73715e-014 2.78299e-014
rhumerus -40.7926 -9.46849 -71.2431
rradius 20.7868
rwrist -26.8945
rhand -16.9883 14.8493
rfingers 7.12502
rthumb 9.24663 -14.9279
lclavicle -3.73715e-014 2.78299e-014
lhumerus -37.811 1.8328 87.14
lradius 35.1282
lwrist -6.82997
lhand -0.364285 43.4312
lfingers 7.12502
lthumb 25.2414 71.7816
rfemur -22.5307 0.319096 23.4257
rtibia 22.2453
rfoot -6.36283 -11.3571
rtoes 20.7454
lfemur 2.52129 -5.17305 -19.9152
ltibia 36.8127
lfoot 1.12797 -8.58184
ltoes 1.36069
704
root 0.871425 17.1431 20.7084 5.28337 4.35423 -1.3664
lowerback 2.8332 -2.14944 -1.63398
upperback -2.43264 -2.79273 4.38981
thorax -3.80802 -1.28429 5.64717
lowerneck -15.8406 1.52271 -2.10813
upperneck 17.9243 2.43802 0.866866
head 8.13272 1.09913 0.917428
rclavicle 2.32081e-014 -3.57812e-014
rhumerus -41.0276 -8.85846 -71.6004
rradius 20.9671
rwrist -27.4655
rhand -17.3229 13.8013
rfingers 7.12502
rthumb 8.92379 -15.99
lclavicle 2.32081e-014 -3.57812e-014
lhumerus -38.1041 1.40078 87.2978
lradius 34.8743
lwrist -6.66344
lhand 0.0392199 43.106
lfingers 7.12502
lthumb 25.6279 71.4014
rfemur -21.7616 0.229068 24.5396
rtibia 22.0803
rfoot -6.77605 -11.2666
rtoes 19.7138
lfemur 1.47599 -4.82283 -18.6808
ltibia 39.2016
lfoot 2.33088 -8.75043
ltoes 2.59334
705
root 0.846701 17.1415 20.8408 5.0766 4.50014 -1.5501
lowerback 2.74858 -2.17319 -1.29745
upperback -2.19722 -2.81786 4.31022
thorax -3.53147 -1.31629 5.35951
lowerneck -15.4068 1.45018 -2.60924
upperneck 17.3017 2.28864 1.63946
head 7.83348 1.07876 1.22701
rclavicle -4.68138e-014 1.27222e-014
rhumerus -41.1226 -8.69053 -72.0454
rradius 20.8205
rwrist -27.9658
rhand -17.4109 14.3136
rfingers 7.12502
rthumb 8.83886 -15.4813
lclavicle -4.68138e-014 1.27222e-014
lhumerus -38.474 1.26507 87.1459
lradius 35.2542
lwrist -7.01761
lhand 0.752419 43.8103
lfingers 7.12502
lthumb 26.3109 72.0055
rfemur -20.9839 0.186334 24.8777
rtibia 21.913
rfoot -7.13236 -11.4928
rtoes 21.2233
lfemur 0.576048 -4.71614 -18.205
ltibia 41.5628
lfoot 4.12396 -8.69094
ltoes 4.31352
706
root 0.817916 17.1434 20.943 5.11233 4.40909 -1.98948
lowerback 3.01382 -2.12188 -0.973913
upperback -2.28264 -2.72299 4.46825
thorax -3.78749 -1.26857 5.35428
lowerneck -15.4672 1.30727 -2.76925
upperneck 17.3858 2.14731 1.56776
head 7.87481 0.992965 1.21577
rclavicle -2.73329e-015 -1.59028e-015
rhumerus -41.6276 -7.67905 -72.576
rradius 21.2278
rwrist -29.0148
rhand -17.5157 14.4006
rfingers 7.12502
rthumb 8.7377 -15.3986
lclavicle -2.73329e-015 -1.59028e-015
lhumerus -38.6177 0.821153 87.331
lradius 34.5242
lwrist -7.2538
lhand 0.820019 43.5256
lfingers 7.12502
lthumb 26.3756 71.7111
rfemur -20.6807 0.584175 25.5135
rtibia 21.8744
rfoot -7.50575 -11.8405
rtoes 23.5804
lfemur -0.823493 -4.44295 -17.3531
ltibia 43.9945
lfoot 5.42146 -9.51447
ltoes 6.72592
707
root 0.786711 17.1389 21.0603 4.98939 4.39587 -2.35137
lowerback 3.15189 -2.05044 -0.69016
upperback -2.2055 -2.60986 4.56404
thorax -3.80472 -1.21879 5.29179
lowerneck -15.786 1.3218 -2.3169
upperneck 17.6618 2.17114 1.05569
head 8.03486 0.980261 0.980866
rclavicle 4.18442e-014 3.18055e-015
rhumerus -42.1795 -9.04897 -71.7745
rradius 21.5478
rwrist -27.5796
rhand -17.3436 13.5313
rfingers 7.12502
rthumb 8.9038 -16.2608
lclavicle 4.18442e-014 3.18055e-015
lhumerus -39.1887 0.747623 87.3178
lradius 35.1046
lwrist -7.76191
lhand 1.56837 43.6822
lfingers 7.12502
lthumb 27.0917 71.7583
rfemur -20.2478 0.800863 26.1244
rtibia 22.0716
rfoot -7.90513 -12.1035
rtoes 22.2295
lfemur -1.99203 -4.12503 -16.5538
ltibia 46.1795
lfoot 7.29228 -10.1686
ltoes 10.9703
